<?xml version="1.0" encoding="UTF-8"?>
<svg id="a" data-name="Layer 1" xmlns="http://www.w3.org/2000/svg" width="7900" height="1870" viewBox="0 0 7900 1870">
  <defs>
    <style>
      .b {
        fill: #1b453b;
        stroke-width: 0px;
      }
    </style>
  </defs>
  <path class="b" d="M966.707,102.129c-511.399,0-866.507,337.387-866.507,829.695s355.108,836.059,866.507,836.059,866.494-339.517,866.494-831.825c0-496.542-355.112-833.93-866.494-833.93ZM966.707,1581.146c-367.111,0-624.593-261.004-624.593-645.087,0-388.317,257.481-647.192,624.593-647.192s624.593,258.875,624.593,642.958c0,388.317-257.495,649.321-624.593,649.321Z"/>
  <path class="b" d="M3893.282,1581.146c-386.202,0-609.737-305.572-609.737-657.815,0-369.228,249.003-636.594,613.983-636.594,275.848,0,501.511,144.299,575.778,413.782h241.902c-91.24-409.536-429.362-600.52-817.679-600.52-507.166,0-855.898,333.153-855.898,827.579,0,471.076,327.512,840.305,847.406,840.305,435.001,0,768.89-248.278,841.026-685.396h-241.902c-53.048,294.949-278.714,498.658-594.879,498.658Z"/>
  <path class="b" d="M5373.109,660.212c-341.63,0-556.686,227.045-556.686,553.836s215.056,555.952,556.686,555.952,554.575-229.176,554.575-555.952-212.925-553.836-554.575-553.836ZM5373.109,1604.482c-195.214,0-342.368-135.806-342.368-390.434,0-252.524,147.153-388.33,342.368-388.33s340.253,135.806,340.253,388.33c0,254.627-145.019,390.434-340.253,390.434Z"/>
  <path class="b" d="M7262.202,1606.611c-199.463,0-329.63-150.661-333.876-377.708h871.474c0-339.517-210.811-568.691-537.598-568.691-309.805,0-539.716,229.174-539.716,568.691,0,345.879,238.403,541.097,533.353,541.097,316.181,0,499.396-210.073,531.225-409.536h-207.958c-23.334,116.705-132.282,246.147-316.903,246.147ZM7262.202,819.354c171.881,0,289.32,103.977,319.034,252.511h-635.94c38.192-157.025,157.763-252.511,316.906-252.511Z"/>
  <path class="b" d="M6691.5,696.287h-428.628v143.068c0,40.52-32.845,73.368-73.368,73.368h-143.065v821.202h216.433v-747.835c0-40.52,32.852-73.367,73.368-73.367h355.259v-216.437Z"/>
  <path class="b" d="M2698.384,839.408v-143.104h-522.071v143.104c0,40.52-32.845,73.368-73.368,73.368h-142.97v821.204h216.338v-747.835c0-40.52,32.852-73.368,73.368-73.368h375.334c40.52,0,73.368,32.848,73.368,73.368v747.835h216.473v-821.204h-143.104c-40.52,0-73.368-32.848-73.368-73.368Z"/>
</svg>